ply
format ascii 1.0
comment created by platoply
element vertex 1713
property float32 x
property float32 y
property float32 z
element face 0
property list uint8 int32 vertex_indices
end_header
16 44 12
16 44 13
16 44 14
18 40 14
18 42 12
18 42 13
18 44 12
18 44 13
18 44 14
20 36 13
20 36 14
20 36 15
20 38 13
20 38 14
20 38 15
20 38 17
20 40 11
20 40 12
20 40 13
20 40 14
20 40 15
20 40 16
20 40 17
20 42 11
20 42 12
20 42 13
20 42 14
20 42 15
20 42 16
20 42 17
20 44 12
20 44 13
20 44 14
20 44 15
20 44 18
20 46 13
22 30 0
22 32 0
22 32 1
22 32 2
22 34 0
22 34 1
22 34 2
22 34 14
22 34 15
22 36 0
22 36 1
22 36 12
22 36 13
22 36 14
22 36 15
22 36 16
22 36 17
22 36 18
22 38 0
22 38 1
22 38 11
22 38 12
22 38 13
22 38 14
22 38 15
22 38 16
22 38 17
22 38 18
22 40 0
22 40 11
22 40 12
22 40 13
22 40 14
22 40 15
22 40 16
22 40 17
22 42 11
22 42 12
22 42 13
22 42 14
22 42 15
22 42 16
22 42 17
22 44 12
22 44 13
22 44 14
22 44 15
22 44 16
22 44 17
22 46 13
22 46 14
24 26 0
24 28 0
24 28 1
24 30 0
24 30 1
24 30 2
24 32 0
24 32 1
24 32 2
24 32 16
24 34 0
24 34 1
24 34 2
24 34 13
24 34 14
24 34 15
24 34 16
24 34 17
24 34 18
24 34 19
24 36 0
24 36 1
24 36 2
24 36 3
24 36 10
24 36 11
24 36 12
24 36 13
24 36 14
24 36 15
24 36 16
24 36 17
24 36 18
24 36 19
24 36 20
24 38 0
24 38 1
24 38 2
24 38 3
24 38 10
24 38 11
24 38 12
24 38 13
24 38 14
24 38 15
24 38 16
24 38 17
24 38 18
24 38 19
24 38 20
24 40 0
24 40 1
24 40 2
24 40 10
24 40 11
24 40 12
24 40 13
24 40 14
24 40 15
24 40 16
24 40 17
24 40 18
24 40 19
24 40 20
24 42 0
24 42 1
24 42 11
24 42 12
24 42 13
24 42 14
24 42 15
24 42 16
24 42 17
24 42 18
24 44 0
24 44 11
24 44 12
24 44 13
24 44 14
24 44 15
24 44 16
24 44 17
24 46 14
26 24 0
26 26 0
26 26 1
26 26 2
26 28 0
26 28 1
26 28 2
26 28 3
26 30 0
26 30 1
26 30 2
26 30 3
26 32 0
26 32 1
26 32 2
26 32 3
26 32 4
26 32 13
26 32 14
26 32 15
26 32 16
26 32 17
26 32 18
26 34 0
26 34 1
26 34 2
26 34 3
26 34 4
26 34 10
26 34 11
26 34 12
26 34 13
26 34 14
26 34 15
26 34 16
26 34 17
26 34 18
26 34 19
26 34 20
26 36 0
26 36 1
26 36 2
26 36 3
26 36 9
26 36 10
26 36 11
26 36 12
26 36 13
26 36 14
26 36 15
26 36 16
26 36 17
26 36 18
26 36 19
26 36 20
26 38 0
26 38 1
26 38 2
26 38 3
26 38 9
26 38 10
26 38 11
26 38 12
26 38 13
26 38 14
26 38 15
26 38 16
26 38 17
26 38 18
26 38 19
26 38 20
26 38 21
26 40 0
26 40 1
26 40 2
26 40 3
26 40 10
26 40 11
26 40 12
26 40 13
26 40 14
26 40 15
26 40 16
26 40 17
26 40 18
26 40 19
26 40 20
26 40 21
26 42 0
26 42 1
26 42 2
26 42 3
26 42 11
26 42 12
26 42 13
26 42 14
26 42 15
26 42 16
26 42 17
26 42 18
26 42 19
26 42 20
26 44 0
26 44 1
26 44 2
26 44 11
26 44 12
26 44 13
26 44 14
26 44 15
26 44 16
26 44 17
26 44 18
26 46 0
26 46 13
26 46 14
26 46 16
28 24 0
28 24 1
28 26 0
28 26 1
28 26 2
28 26 3
28 28 0
28 28 1
28 28 2
28 28 3
28 30 0
28 30 1
28 30 2
28 30 3
28 30 4
28 32 0
28 32 1
28 32 2
28 32 3
28 32 4
28 32 5
28 32 6
28 32 7
28 32 8
28 32 9
28 32 10
28 32 11
28 32 12
28 32 13
28 32 14
28 32 15
28 32 16
28 32 17
28 32 18
28 32 19
28 34 0
28 34 1
28 34 2
28 34 3
28 34 4
28 34 5
28 34 9
28 34 10
28 34 11
28 34 12
28 34 13
28 34 14
28 34 15
28 34 16
28 34 17
28 34 18
28 34 19
28 34 20
28 36 0
28 36 1
28 36 2
28 36 3
28 36 4
28 36 9
28 36 10
28 36 11
28 36 12
28 36 13
28 36 14
28 36 15
28 36 16
28 36 17
28 36 18
28 36 19
28 36 20
28 38 0
28 38 1
28 38 2
28 38 3
28 38 4
28 38 9
28 38 10
28 38 11
28 38 12
28 38 13
28 38 14
28 38 15
28 38 16
28 38 17
28 38 18
28 38 19
28 38 20
28 40 0
28 40 1
28 40 2
28 40 3
28 40 9
28 40 10
28 40 11
28 40 12
28 40 13
28 40 14
28 40 15
28 40 16
28 40 17
28 40 18
28 40 19
28 40 20
28 40 21
28 40 22
28 42 0
28 42 1
28 42 2
28 42 3
28 42 10
28 42 11
28 42 12
28 42 13
28 42 14
28 42 15
28 42 16
28 42 17
28 42 18
28 42 19
28 42 20
28 42 21
28 44 0
28 44 1
28 44 2
28 44 3
28 44 13
28 44 14
28 44 15
28 44 16
28 44 17
28 44 18
28 44 19
28 44 20
28 46 0
28 46 1
28 46 14
30 22 0
30 22 1
30 24 0
30 24 1
30 24 2
30 26 0
30 26 1
30 26 2
30 26 3
30 28 0
30 28 1
30 28 2
30 28 3
30 30 0
30 30 1
30 30 2
30 30 3
30 30 4
30 30 11
30 30 14
30 30 15
30 30 16
30 32 0
30 32 1
30 32 2
30 32 3
30 32 4
30 32 10
30 32 11
30 32 12
30 32 13
30 32 14
30 32 15
30 32 16
30 32 17
30 32 18
30 32 19
30 32 20
30 34 0
30 34 1
30 34 2
30 34 3
30 34 4
30 34 9
30 34 10
30 34 11
30 34 12
30 34 13
30 34 14
30 34 15
30 34 16
30 34 17
30 34 18
30 34 19
30 34 20
30 34 21
30 36 0
30 36 1
30 36 2
30 36 3
30 36 4
30 36 9
30 36 10
30 36 11
30 36 12
30 36 13
30 36 14
30 36 15
30 36 16
30 36 17
30 36 18
30 36 19
30 36 20
30 38 0
30 38 1
30 38 2
30 38 3
30 38 4
30 38 9
30 38 10
30 38 11
30 38 12
30 38 13
30 38 14
30 38 15
30 38 16
30 38 17
30 38 18
30 38 19
30 38 20
30 40 0
30 40 1
30 40 2
30 40 3
30 40 4
30 40 9
30 40 10
30 40 11
30 40 12
30 40 13
30 40 14
30 40 15
30 40 16
30 40 17
30 40 18
30 40 19
30 40 20
30 42 0
30 42 1
30 42 2
30 42 3
30 42 4
30 42 9
30 42 10
30 42 11
30 42 12
30 42 13
30 42 14
30 42 15
30 42 16
30 42 17
30 42 18
30 42 19
30 42 20
30 44 0
30 44 1
30 44 2
30 44 13
30 44 14
30 44 15
30 44 16
30 44 17
30 44 18
30 44 19
30 44 20
30 46 0
30 46 1
30 46 2
30 48 0
30 48 2
32 22 0
32 22 1
32 22 2
32 24 0
32 24 1
32 24 2
32 24 3
32 26 0
32 26 1
32 26 2
32 26 3
32 28 0
32 28 1
32 28 2
32 28 3
32 28 4
32 30 0
32 30 1
32 30 2
32 30 3
32 30 4
32 30 11
32 30 12
32 30 13
32 30 14
32 30 15
32 30 16
32 30 17
32 30 18
32 30 19
32 32 0
32 32 1
32 32 2
32 32 3
32 32 4
32 32 10
32 32 11
32 32 12
32 32 13
32 32 14
32 32 15
32 32 16
32 32 17
32 32 18
32 32 19
32 32 20
32 32 21
32 32 22
32 34 0
32 34 1
32 34 2
32 34 3
32 34 4
32 34 5
32 34 10
32 34 11
32 34 12
32 34 13
32 34 14
32 34 15
32 34 16
32 34 17
32 34 18
32 34 19
32 34 20
32 34 21
32 34 22
32 36 0
32 36 1
32 36 2
32 36 3
32 36 4
32 36 5
32 36 9
32 36 10
32 36 11
32 36 12
32 36 13
32 36 14
32 36 15
32 36 16
32 36 17
32 36 18
32 36 19
32 36 20
32 36 21
32 36 22
32 38 0
32 38 1
32 38 2
32 38 3
32 38 4
32 38 9
32 38 10
32 38 11
32 38 12
32 38 13
32 38 14
32 38 15
32 38 16
32 38 17
32 38 18
32 38 19
32 38 20
32 38 21
32 38 22
32 40 0
32 40 1
32 40 2
32 40 3
32 40 4
32 40 5
32 40 9
32 40 10
32 40 11
32 40 12
32 40 13
32 40 14
32 40 15
32 40 16
32 40 17
32 40 18
32 40 19
32 40 20
32 40 21
32 42 0
32 42 1
32 42 2
32 42 3
32 42 4
32 42 5
32 42 6
32 42 7
32 42 8
32 42 9
32 42 10
32 42 11
32 42 12
32 42 13
32 42 14
32 42 15
32 42 16
32 42 17
32 42 18
32 42 19
32 42 20
32 44 0
32 44 1
32 44 2
32 44 3
32 44 13
32 44 14
32 44 15
32 44 16
32 44 17
32 44 18
32 46 0
32 46 1
32 46 2
32 46 3
32 48 0
32 48 1
32 48 2
34 22 0
34 22 1
34 22 2
34 24 0
34 24 1
34 24 2
34 24 3
34 26 0
34 26 1
34 26 2
34 26 3
34 26 4
34 28 0
34 28 1
34 28 2
34 28 3
34 28 4
34 28 14
34 28 15
34 28 17
34 30 0
34 30 1
34 30 2
34 30 3
34 30 4
34 30 11
34 30 12
34 30 13
34 30 14
34 30 15
34 30 16
34 30 17
34 30 18
34 30 19
34 32 0
34 32 1
34 32 2
34 32 3
34 32 4
34 32 5
34 32 10
34 32 11
34 32 12
34 32 13
34 32 14
34 32 15
34 32 16
34 32 17
34 32 18
34 32 19
34 32 20
34 32 21
34 32 22
34 34 0
34 34 1
34 34 2
34 34 3
34 34 4
34 34 5
34 34 9
34 34 10
34 34 11
34 34 12
34 34 13
34 34 14
34 34 15
34 34 16
34 34 17
34 34 18
34 34 19
34 34 20
34 34 21
34 34 22
34 36 0
34 36 1
34 36 2
34 36 3
34 36 4
34 36 5
34 36 9
34 36 10
34 36 11
34 36 12
34 36 13
34 36 14
34 36 15
34 36 16
34 36 17
34 36 18
34 36 19
34 36 20
34 36 21
34 36 22
34 38 0
34 38 1
34 38 2
34 38 3
34 38 4
34 38 5
34 38 9
34 38 10
34 38 11
34 38 12
34 38 13
34 38 14
34 38 15
34 38 16
34 38 17
34 38 18
34 38 19
34 38 20
34 38 21
34 40 0
34 40 1
34 40 2
34 40 3
34 40 4
34 40 9
34 40 10
34 40 11
34 40 12
34 40 13
34 40 14
34 40 15
34 40 16
34 40 17
34 40 18
34 40 19
34 40 20
34 40 21
34 42 0
34 42 1
34 42 2
34 42 3
34 42 4
34 42 8
34 42 9
34 42 10
34 42 11
34 42 12
34 42 13
34 42 14
34 42 15
34 42 16
34 42 17
34 42 18
34 42 19
34 44 0
34 44 1
34 44 2
34 44 3
34 44 15
34 46 0
34 46 1
34 46 2
34 46 3
34 48 0
34 48 1
34 50 0
36 22 0
36 22 1
36 22 2
36 24 0
36 24 1
36 24 2
36 24 3
36 26 0
36 26 1
36 26 2
36 26 3
36 26 4
36 28 0
36 28 1
36 28 2
36 28 3
36 28 4
36 28 10
36 28 11
36 28 12
36 28 13
36 28 14
36 28 15
36 28 16
36 28 17
36 30 0
36 30 1
36 30 2
36 30 3
36 30 4
36 30 11
36 30 12
36 30 13
36 30 14
36 30 15
36 30 16
36 30 17
36 30 18
36 30 19
36 30 20
36 32 0
36 32 1
36 32 2
36 32 3
36 32 4
36 32 5
36 32 10
36 32 11
36 32 12
36 32 13
36 32 14
36 32 15
36 32 16
36 32 17
36 32 18
36 32 19
36 32 20
36 32 21
36 32 22
36 34 0
36 34 1
36 34 2
36 34 3
36 34 4
36 34 5
36 34 9
36 34 10
36 34 11
36 34 12
36 34 13
36 34 14
36 34 15
36 34 16
36 34 17
36 34 18
36 34 19
36 34 20
36 34 21
36 34 22
36 36 0
36 36 1
36 36 2
36 36 3
36 36 4
36 36 5
36 36 9
36 36 10
36 36 11
36 36 12
36 36 13
36 36 14
36 36 15
36 36 16
36 36 17
36 36 18
36 36 19
36 36 20
36 36 21
36 36 22
36 38 0
36 38 1
36 38 2
36 38 3
36 38 4
36 38 10
36 38 11
36 38 12
36 38 13
36 38 14
36 38 15
36 38 16
36 38 17
36 38 18
36 38 19
36 38 20
36 38 21
36 40 0
36 40 1
36 40 2
36 40 3
36 40 4
36 40 10
36 40 11
36 40 12
36 40 13
36 40 14
36 40 15
36 40 16
36 40 17
36 40 18
36 40 19
36 40 20
36 42 0
36 42 1
36 42 2
36 42 3
36 42 4
36 42 11
36 42 12
36 42 13
36 42 14
36 42 15
36 42 16
36 44 0
36 44 1
36 44 2
36 44 3
36 46 0
36 46 1
36 46 2
36 46 3
36 48 0
36 48 1
36 48 2
36 50 0
38 22 0
38 22 1
38 24 0
38 24 1
38 24 2
38 24 3
38 26 0
38 26 1
38 26 2
38 26 3
38 26 4
38 26 15
38 28 0
38 28 1
38 28 2
38 28 3
38 28 4
38 28 10
38 28 11
38 28 12
38 28 13
38 28 14
38 28 15
38 28 16
38 28 17
38 28 18
38 28 19
38 30 0
38 30 1
38 30 2
38 30 3
38 30 4
38 30 11
38 30 12
38 30 13
38 30 14
38 30 15
38 30 16
38 30 17
38 30 18
38 30 19
38 30 20
38 30 21
38 32 0
38 32 1
38 32 2
38 32 3
38 32 4
38 32 5
38 32 11
38 32 12
38 32 13
38 32 14
38 32 15
38 32 16
38 32 17
38 32 18
38 32 19
38 32 20
38 32 21
38 32 22
38 34 0
38 34 1
38 34 2
38 34 3
38 34 4
38 34 5
38 34 10
38 34 11
38 34 12
38 34 13
38 34 14
38 34 15
38 34 16
38 34 17
38 34 18
38 34 19
38 34 20
38 34 21
38 34 22
38 34 23
38 36 0
38 36 1
38 36 2
38 36 3
38 36 4
38 36 5
38 36 10
38 36 11
38 36 12
38 36 13
38 36 14
38 36 15
38 36 16
38 36 17
38 36 18
38 36 19
38 36 20
38 36 21
38 36 22
38 38 0
38 38 1
38 38 2
38 38 3
38 38 4
38 38 11
38 38 12
38 38 13
38 38 14
38 38 15
38 38 16
38 38 17
38 38 18
38 38 19
38 38 20
38 40 0
38 40 1
38 40 2
38 40 3
38 40 4
38 40 11
38 40 12
38 40 13
38 40 14
38 40 15
38 40 16
38 40 17
38 40 18
38 40 19
38 40 20
38 42 0
38 42 1
38 42 2
38 42 3
38 42 4
38 44 0
38 44 1
38 44 2
38 44 3
38 44 4
38 46 0
38 46 1
38 46 2
38 46 3
38 48 0
38 48 1
38 48 2
40 22 0
40 22 1
40 24 0
40 24 1
40 24 2
40 24 3
40 26 0
40 26 1
40 26 2
40 26 3
40 26 4
40 26 8
40 28 0
40 28 1
40 28 2
40 28 3
40 28 4
40 28 9
40 28 10
40 28 11
40 28 12
40 28 13
40 28 14
40 28 15
40 28 16
40 28 17
40 28 18
40 28 19
40 28 20
40 30 0
40 30 1
40 30 2
40 30 3
40 30 4
40 30 11
40 30 12
40 30 13
40 30 14
40 30 15
40 30 16
40 30 17
40 30 18
40 30 19
40 30 20
40 30 21
40 32 0
40 32 1
40 32 2
40 32 3
40 32 4
40 32 11
40 32 12
40 32 13
40 32 14
40 32 15
40 32 16
40 32 17
40 32 18
40 32 19
40 32 20
40 32 21
40 32 22
40 34 0
40 34 1
40 34 2
40 34 3
40 34 4
40 34 5
40 34 10
40 34 11
40 34 12
40 34 13
40 34 14
40 34 15
40 34 16
40 34 17
40 34 18
40 34 19
40 34 20
40 34 21
40 34 22
40 36 0
40 36 1
40 36 2
40 36 3
40 36 4
40 36 5
40 36 11
40 36 12
40 36 13
40 36 14
40 36 15
40 36 16
40 36 17
40 36 18
40 36 19
40 36 20
40 38 0
40 38 1
40 38 2
40 38 3
40 38 4
40 38 11
40 38 12
40 38 13
40 38 14
40 38 15
40 38 16
40 38 17
40 38 18
40 38 19
40 38 20
40 40 0
40 40 1
40 40 2
40 40 3
40 40 4
40 40 11
40 40 12
40 40 13
40 40 14
40 40 15
40 40 16
40 42 0
40 42 1
40 42 2
40 42 3
40 42 4
40 44 0
40 44 1
40 44 2
40 44 3
40 46 0
40 46 1
40 46 2
40 46 3
40 48 0
40 48 1
40 48 2
42 24 0
42 24 1
42 24 2
42 26 0
42 26 1
42 26 2
42 26 3
42 26 4
42 26 5
42 26 6
42 26 7
42 26 8
42 26 9
42 26 14
42 26 15
42 26 16
42 26 17
42 28 0
42 28 1
42 28 2
42 28 3
42 28 4
42 28 5
42 28 9
42 28 10
42 28 11
42 28 12
42 28 13
42 28 14
42 28 15
42 28 16
42 28 17
42 28 18
42 28 19
42 30 0
42 30 1
42 30 2
42 30 3
42 30 4
42 30 12
42 30 13
42 30 14
42 30 15
42 30 16
42 30 17
42 30 18
42 30 19
42 30 20
42 30 21
42 32 0
42 32 1
42 32 2
42 32 3
42 32 4
42 32 12
42 32 13
42 32 14
42 32 15
42 32 16
42 32 17
42 32 18
42 32 19
42 32 20
42 32 21
42 32 22
42 34 0
42 34 1
42 34 2
42 34 3
42 34 4
42 34 11
42 34 12
42 34 13
42 34 14
42 34 15
42 34 16
42 34 17
42 34 18
42 34 19
42 34 20
42 34 21
42 34 22
42 36 0
42 36 1
42 36 2
42 36 3
42 36 4
42 36 11
42 36 12
42 36 13
42 36 14
42 36 15
42 36 16
42 36 17
42 36 18
42 36 19
42 36 20
42 38 0
42 38 1
42 38 2
42 38 3
42 38 4
42 38 11
42 38 12
42 38 13
42 38 14
42 38 15
42 38 16
42 38 17
42 38 18
42 40 0
42 40 1
42 40 2
42 40 3
42 40 4
42 40 15
42 42 0
42 42 1
42 42 2
42 42 3
42 44 0
42 44 1
42 44 2
42 44 3
42 46 0
42 46 1
42 46 2
44 24 0
44 24 1
44 26 0
44 26 1
44 26 2
44 26 3
44 26 5
44 26 14
44 26 15
44 26 16
44 26 17
44 28 0
44 28 1
44 28 2
44 28 3
44 28 13
44 28 14
44 28 15
44 28 16
44 28 17
44 28 18
44 28 19
44 30 0
44 30 1
44 30 2
44 30 3
44 30 4
44 30 11
44 30 12
44 30 13
44 30 14
44 30 15
44 30 16
44 30 17
44 30 18
44 30 19
44 30 20
44 30 21
44 32 0
44 32 1
44 32 2
44 32 3
44 32 4
44 32 11
44 32 12
44 32 13
44 32 14
44 32 15
44 32 16
44 32 17
44 32 18
44 32 19
44 32 20
44 32 21
44 34 0
44 34 1
44 34 2
44 34 3
44 34 4
44 34 11
44 34 12
44 34 13
44 34 14
44 34 15
44 34 16
44 34 17
44 34 18
44 34 19
44 34 20
44 34 21
44 36 0
44 36 1
44 36 2
44 36 3
44 36 4
44 36 10
44 36 11
44 36 12
44 36 13
44 36 14
44 36 15
44 36 16
44 36 17
44 36 18
44 36 19
44 38 0
44 38 1
44 38 2
44 38 3
44 38 4
44 38 10
44 38 11
44 38 12
44 38 13
44 38 14
44 38 15
44 40 0
44 40 1
44 40 2
44 40 3
44 40 4
44 42 0
44 42 1
44 42 2
44 42 3
44 44 0
44 44 1
44 44 2
44 46 0
46 26 0
46 26 14
46 26 15
46 26 16
46 26 17
46 28 0
46 28 1
46 28 2
46 28 13
46 28 14
46 28 15
46 28 16
46 28 17
46 28 18
46 28 19
46 30 0
46 30 1
46 30 2
46 30 3
46 30 4
46 30 13
46 30 14
46 30 15
46 30 16
46 30 17
46 30 18
46 30 19
46 30 20
46 32 0
46 32 1
46 32 2
46 32 3
46 32 4
46 32 14
46 32 15
46 32 16
46 32 17
46 32 18
46 32 19
46 32 20
46 34 0
46 34 1
46 34 2
46 34 3
46 34 4
46 34 11
46 34 13
46 34 14
46 34 15
46 34 16
46 34 17
46 34 18
46 36 0
46 36 1
46 36 2
46 36 3
46 36 4
46 36 5
46 36 6
46 36 7
46 36 8
46 36 9
46 36 10
46 36 11
46 36 12
46 36 13
46 36 14
46 36 15
46 38 0
46 38 1
46 38 2
46 38 3
46 38 4
46 38 9
46 40 0
46 40 1
46 40 2
46 42 0
46 42 1
46 42 2
46 44 0
46 44 1
48 26 13
48 26 14
48 26 15
48 26 17
48 28 14
48 28 15
48 28 16
48 28 17
48 28 18
48 30 0
48 30 14
48 30 15
48 30 16
48 30 17
48 30 18
48 32 0
48 32 1
48 32 14
48 32 15
48 32 16
48 32 17
48 32 18
48 34 0
48 34 1
48 34 2
48 34 14
48 34 15
48 36 0
48 36 1
48 36 5
48 36 6
48 36 7
48 36 8
48 38 0
48 38 1
48 38 2
48 40 0
48 40 1
48 40 2
50 26 13
50 26 14
50 26 15
50 26 16
50 28 13
50 28 14
50 28 15
50 28 16
50 28 17
50 30 14
50 30 15
50 30 16
50 30 17
50 32 14
50 32 15
52 26 13
52 26 14
52 26 15
52 28 13
52 28 14
52 28 15
52 30 14
54 26 13
54 26 14
54 28 13
54 28 14
56 26 12
56 26 13
56 28 13
58 24 12
