ply
format ascii 1.0
comment created by platoply
element vertex 3788
property float32 x
property float32 y
property float32 z
element face 0
property list uint8 int32 vertex_indices
end_header
12 36 14
12 36 15
12 36 16
12 38 13
12 38 14
12 38 15
12 40 15
14 34 14
14 34 15
14 34 16
14 36 14
14 36 15
14 36 16
14 36 17
14 38 13
14 38 14
14 38 15
14 38 16
14 40 12
14 40 13
14 40 14
14 40 15
14 42 13
16 32 14
16 32 15
16 32 16
16 32 17
16 34 14
16 34 15
16 34 16
16 34 17
16 36 14
16 36 15
16 36 16
16 36 17
16 36 18
16 38 13
16 38 14
16 38 15
16 38 16
16 38 17
16 38 18
16 40 12
16 40 13
16 40 14
16 40 15
16 40 16
16 42 12
16 42 13
16 42 14
16 42 15
16 42 16
16 44 12
16 44 13
18 30 15
18 30 16
18 32 13
18 32 14
18 32 15
18 32 16
18 32 17
18 32 18
18 34 13
18 34 14
18 34 15
18 34 16
18 34 17
18 34 18
18 36 13
18 36 14
18 36 15
18 36 16
18 36 17
18 36 18
18 38 13
18 38 14
18 38 15
18 38 16
18 38 17
18 38 18
18 40 13
18 40 14
18 40 15
18 40 16
18 40 17
18 42 12
18 42 13
18 42 14
18 42 15
18 42 17
18 44 11
18 44 12
18 44 13
18 44 14
20 30 14
20 30 15
20 30 16
20 30 17
20 30 18
20 32 13
20 32 14
20 32 15
20 32 16
20 32 17
20 32 18
20 34 13
20 34 14
20 34 15
20 34 16
20 34 17
20 34 18
20 36 13
20 36 14
20 36 15
20 36 16
20 36 17
20 36 18
20 38 13
20 38 14
20 38 15
20 38 16
20 38 17
20 38 18
20 38 19
20 40 13
20 40 14
20 40 15
20 40 16
20 40 17
20 40 18
20 40 19
20 42 12
20 42 13
20 42 14
20 42 15
20 42 16
20 42 17
20 42 18
20 44 12
20 44 13
20 44 14
20 44 15
20 46 12
20 46 13
20 46 14
22 28 15
22 28 16
22 28 17
22 30 0
22 30 13
22 30 14
22 30 15
22 30 16
22 30 17
22 30 18
22 32 0
22 32 1
22 32 13
22 32 14
22 32 15
22 32 16
22 32 17
22 32 18
22 32 19
22 34 0
22 34 1
22 34 13
22 34 14
22 34 15
22 34 16
22 34 17
22 34 18
22 34 19
22 36 0
22 36 1
22 36 13
22 36 14
22 36 15
22 36 16
22 36 17
22 36 18
22 36 19
22 36 20
22 38 0
22 38 1
22 38 2
22 38 13
22 38 14
22 38 15
22 38 16
22 38 17
22 38 18
22 38 19
22 38 20
22 40 0
22 40 12
22 40 13
22 40 14
22 40 15
22 40 16
22 40 17
22 40 18
22 40 19
22 42 13
22 42 14
22 42 15
22 42 16
22 42 17
22 42 18
22 44 13
22 44 14
22 44 15
22 46 12
22 46 13
22 46 14
22 46 15
24 26 0
24 26 14
24 26 15
24 26 16
24 28 0
24 28 1
24 28 13
24 28 14
24 28 15
24 28 16
24 28 17
24 28 18
24 28 19
24 30 0
24 30 1
24 30 2
24 30 12
24 30 13
24 30 14
24 30 15
24 30 16
24 30 17
24 30 18
24 30 19
24 32 0
24 32 1
24 32 2
24 32 3
24 32 11
24 32 12
24 32 13
24 32 14
24 32 15
24 32 16
24 32 17
24 32 18
24 32 19
24 32 20
24 34 0
24 34 1
24 34 2
24 34 3
24 34 11
24 34 12
24 34 13
24 34 14
24 34 15
24 34 16
24 34 17
24 34 18
24 34 19
24 34 20
24 36 0
24 36 1
24 36 2
24 36 3
24 36 13
24 36 14
24 36 15
24 36 16
24 36 17
24 36 18
24 36 19
24 36 20
24 38 0
24 38 1
24 38 2
24 38 3
24 38 13
24 38 14
24 38 15
24 38 16
24 38 17
24 38 18
24 38 19
24 38 20
24 40 0
24 40 1
24 40 2
24 40 3
24 40 10
24 40 11
24 40 12
24 40 13
24 40 14
24 40 15
24 40 16
24 40 17
24 40 18
24 40 19
24 40 20
24 42 0
24 42 1
24 42 2
24 42 13
24 42 14
24 42 15
24 42 16
24 42 17
24 42 18
24 42 19
24 44 0
24 44 1
24 44 12
24 44 13
24 44 14
24 44 15
24 44 16
24 44 17
24 46 13
24 46 14
24 46 15
24 46 16
26 12 35
26 12 36
26 14 35
26 14 37
26 16 34
26 16 35
26 16 36
26 16 37
26 16 38
26 16 39
26 18 34
26 18 35
26 18 36
26 18 37
26 18 38
26 18 39
26 20 34
26 20 35
26 20 36
26 22 34
26 22 35
26 22 36
26 24 0
26 24 33
26 24 34
26 24 35
26 26 0
26 26 1
26 26 2
26 26 14
26 26 15
26 26 16
26 26 17
26 26 18
26 26 19
26 26 33
26 26 34
26 26 35
26 28 0
26 28 1
26 28 2
26 28 3
26 28 13
26 28 14
26 28 15
26 28 16
26 28 17
26 28 18
26 28 19
26 28 20
26 28 22
26 28 33
26 28 34
26 28 35
26 30 0
26 30 1
26 30 2
26 30 3
26 30 13
26 30 14
26 30 15
26 30 16
26 30 17
26 30 18
26 30 19
26 30 20
26 30 21
26 30 26
26 30 27
26 30 28
26 30 29
26 30 33
26 30 34
26 30 35
26 32 0
26 32 1
26 32 2
26 32 3
26 32 4
26 32 11
26 32 12
26 32 13
26 32 14
26 32 15
26 32 16
26 32 17
26 32 18
26 32 19
26 32 20
26 32 28
26 32 29
26 32 33
26 32 34
26 32 35
26 34 0
26 34 1
26 34 2
26 34 3
26 34 4
26 34 9
26 34 13
26 34 14
26 34 15
26 34 16
26 34 17
26 34 18
26 34 19
26 34 20
26 34 27
26 34 28
26 34 29
26 34 32
26 34 33
26 34 34
26 36 0
26 36 1
26 36 2
26 36 3
26 36 4
26 36 12
26 36 13
26 36 14
26 36 15
26 36 16
26 36 17
26 36 18
26 36 19
26 36 20
26 36 22
26 36 27
26 36 29
26 36 30
26 36 31
26 36 32
26 38 0
26 38 1
26 38 2
26 38 3
26 38 4
26 38 13
26 38 14
26 38 15
26 38 16
26 38 17
26 38 18
26 38 19
26 38 20
26 40 0
26 40 1
26 40 2
26 40 3
26 40 4
26 40 11
26 40 12
26 40 13
26 40 14
26 40 15
26 40 16
26 40 17
26 40 18
26 40 19
26 40 20
26 42 0
26 42 1
26 42 2
26 42 3
26 42 13
26 42 14
26 42 15
26 42 16
26 42 17
26 42 18
26 42 19
26 42 20
26 44 0
26 44 1
26 44 2
26 44 3
26 44 11
26 44 12
26 44 13
26 44 14
26 44 15
26 44 16
26 44 17
26 44 18
26 44 19
26 46 0
26 46 1
26 46 2
26 46 12
26 46 13
26 46 14
26 46 15
26 46 16
26 48 13
26 48 14
26 48 15
28 10 35
28 10 36
28 12 34
28 12 35
28 12 36
28 12 37
28 12 38
28 14 34
28 14 35
28 14 36
28 14 37
28 14 38
28 14 39
28 16 33
28 16 34
28 16 35
28 16 36
28 16 37
28 16 38
28 16 39
28 16 40
28 18 33
28 18 34
28 18 35
28 18 36
28 18 37
28 18 38
28 18 39
28 18 40
28 20 32
28 20 33
28 20 34
28 20 35
28 20 36
28 20 37
28 20 38
28 20 39
28 20 40
28 22 32
28 22 33
28 22 34
28 22 35
28 22 36
28 22 37
28 22 38
28 22 39
28 22 40
28 24 0
28 24 1
28 24 2
28 24 14
28 24 15
28 24 16
28 24 17
28 24 18
28 24 19
28 24 30
28 24 31
28 24 32
28 24 33
28 24 34
28 24 35
28 24 36
28 24 37
28 24 38
28 26 0
28 26 1
28 26 2
28 26 3
28 26 13
28 26 14
28 26 15
28 26 16
28 26 17
28 26 18
28 26 19
28 26 20
28 26 21
28 26 22
28 26 23
28 26 24
28 26 25
28 26 27
28 26 28
28 26 29
28 26 30
28 26 31
28 26 32
28 26 33
28 26 34
28 26 35
28 26 36
28 26 37
28 26 38
28 28 0
28 28 1
28 28 2
28 28 3
28 28 11
28 28 12
28 28 13
28 28 14
28 28 15
28 28 16
28 28 17
28 28 18
28 28 19
28 28 20
28 28 21
28 28 22
28 28 23
28 28 24
28 28 25
28 28 26
28 28 27
28 28 28
28 28 29
28 28 30
28 28 31
28 28 32
28 28 33
28 28 34
28 28 35
28 28 36
28 28 37
28 28 38
28 30 0
28 30 1
28 30 2
28 30 3
28 30 4
28 30 13
28 30 14
28 30 15
28 30 16
28 30 17
28 30 18
28 30 19
28 30 20
28 30 21
28 30 22
28 30 23
28 30 24
28 30 25
28 30 26
28 30 27
28 30 28
28 30 29
28 30 30
28 30 31
28 30 32
28 30 33
28 30 34
28 30 35
28 30 36
28 30 37
28 30 38
28 32 0
28 32 1
28 32 2
28 32 3
28 32 12
28 32 13
28 32 14
28 32 15
28 32 16
28 32 17
28 32 18
28 32 19
28 32 20
28 32 21
28 32 22
28 32 23
28 32 24
28 32 25
28 32 26
28 32 27
28 32 28
28 32 29
28 32 30
28 32 31
28 32 32
28 32 33
28 32 35
28 32 36
28 32 37
28 34 0
28 34 1
28 34 2
28 34 3
28 34 4
28 34 12
28 34 13
28 34 14
28 34 15
28 34 16
28 34 17
28 34 18
28 34 19
28 34 20
28 34 21
28 34 22
28 34 23
28 34 24
28 34 25
28 34 26
28 34 27
28 34 28
28 34 29
28 34 30
28 34 31
28 34 32
28 34 33
28 34 34
28 34 35
28 34 36
28 34 37
28 36 0
28 36 1
28 36 2
28 36 3
28 36 12
28 36 13
28 36 14
28 36 15
28 36 16
28 36 17
28 36 18
28 36 19
28 36 20
28 36 21
28 36 22
28 36 23
28 36 24
28 36 25
28 36 26
28 36 27
28 36 28
28 36 29
28 36 30
28 36 31
28 36 32
28 36 33
28 36 34
28 36 35
28 36 36
28 38 0
28 38 1
28 38 2
28 38 3
28 38 4
28 38 12
28 38 13
28 38 14
28 38 15
28 38 16
28 38 17
28 38 18
28 38 19
28 38 20
28 38 21
28 38 22
28 38 23
28 38 24
28 38 25
28 38 26
28 38 27
28 38 28
28 38 29
28 38 30
28 38 31
28 38 32
28 38 33
28 40 0
28 40 1
28 40 2
28 40 3
28 40 4
28 40 13
28 40 14
28 40 15
28 40 16
28 40 17
28 40 18
28 40 19
28 40 20
28 40 21
28 40 22
28 42 0
28 42 1
28 42 2
28 42 3
28 42 4
28 42 13
28 42 14
28 42 15
28 42 16
28 42 17
28 42 18
28 42 19
28 42 20
28 44 0
28 44 1
28 44 2
28 44 3
28 44 4
28 44 13
28 44 14
28 44 15
28 44 16
28 44 17
28 44 18
28 44 19
28 46 0
28 46 1
28 46 2
28 46 3
28 46 5
28 46 10
28 46 13
28 46 14
28 46 15
28 46 16
28 46 17
28 48 11
28 48 12
28 48 13
28 48 14
28 48 15
30 12 34
30 12 35
30 12 36
30 12 37
30 12 38
30 14 34
30 14 35
30 14 36
30 14 37
30 14 38
30 14 39
30 16 34
30 16 35
30 16 36
30 16 37
30 16 38
30 16 39
30 16 40
30 18 32
30 18 33
30 18 34
30 18 35
30 18 36
30 18 37
30 18 38
30 18 39
30 18 40
30 20 31
30 20 32
30 20 33
30 20 34
30 20 35
30 20 36
30 20 37
30 20 38
30 20 39
30 20 40
30 20 41
30 22 0
30 22 30
30 22 31
30 22 32
30 22 33
30 22 34
30 22 35
30 22 36
30 22 37
30 22 38
30 22 39
30 22 40
30 24 0
30 24 1
30 24 2
30 24 14
30 24 15
30 24 16
30 24 17
30 24 18
30 24 19
30 24 20
30 24 21
30 24 22
30 24 23
30 24 24
30 24 25
30 24 29
30 24 30
30 24 31
30 24 32
30 24 33
30 24 34
30 24 35
30 24 36
30 24 37
30 24 38
30 24 39
30 24 40
30 26 0
30 26 1
30 26 2
30 26 13
30 26 14
30 26 15
30 26 16
30 26 17
30 26 18
30 26 19
30 26 20
30 26 21
30 26 22
30 26 23
30 26 24
30 26 25
30 26 26
30 26 27
30 26 28
30 26 29
30 26 30
30 26 31
30 26 32
30 26 33
30 26 34
30 26 35
30 26 36
30 26 37
30 26 38
30 26 39
30 26 40
30 28 0
30 28 1
30 28 2
30 28 3
30 28 4
30 28 13
30 28 14
30 28 15
30 28 16
30 28 17
30 28 18
30 28 19
30 28 20
30 28 21
30 28 22
30 28 23
30 28 24
30 28 25
30 28 26
30 28 27
30 28 28
30 28 29
30 28 30
30 28 31
30 28 32
30 28 33
30 28 34
30 28 35
30 28 36
30 28 37
30 28 38
30 28 39
30 28 40
30 30 0
30 30 1
30 30 2
30 30 13
30 30 14
30 30 15
30 30 16
30 30 17
30 30 18
30 30 19
30 30 20
30 30 21
30 30 22
30 30 23
30 30 24
30 30 25
30 30 26
30 30 27
30 30 28
30 30 29
30 30 30
30 30 31
30 30 32
30 30 33
30 30 34
30 30 35
30 30 36
30 30 37
30 30 38
30 30 39
30 30 40
30 32 0
30 32 1
30 32 2
30 32 3
30 32 4
30 32 12
30 32 13
30 32 14
30 32 15
30 32 16
30 32 17
30 32 18
30 32 19
30 32 20
30 32 21
30 32 22
30 32 23
30 32 24
30 32 25
30 32 26
30 32 27
30 32 28
30 32 29
30 32 30
30 32 31
30 32 32
30 32 33
30 32 34
30 32 35
30 32 36
30 32 37
30 32 38
30 32 39
30 34 0
30 34 1
30 34 2
30 34 3
30 34 4
30 34 12
30 34 13
30 34 14
30 34 15
30 34 16
30 34 17
30 34 18
30 34 19
30 34 20
30 34 21
30 34 22
30 34 23
30 34 24
30 34 25
30 34 26
30 34 27
30 34 28
30 34 29
30 34 30
30 34 31
30 34 32
30 34 33
30 34 34
30 34 35
30 34 36
30 34 37
30 34 38
30 36 0
30 36 1
30 36 2
30 36 3
30 36 4
30 36 5
30 36 13
30 36 14
30 36 15
30 36 16
30 36 17
30 36 18
30 36 19
30 36 20
30 36 21
30 36 22
30 36 23
30 36 24
30 36 25
30 36 26
30 36 27
30 36 28
30 36 29
30 36 30
30 36 31
30 36 32
30 36 33
30 36 34
30 36 35
30 36 36
30 36 37
30 38 0
30 38 1
30 38 2
30 38 3
30 38 4
30 38 5
30 38 13
30 38 14
30 38 15
30 38 16
30 38 17
30 38 18
30 38 19
30 38 20
30 38 21
30 38 22
30 38 23
30 38 24
30 38 25
30 38 26
30 38 27
30 38 28
30 38 29
30 38 30
30 38 31
30 38 32
30 38 33
30 38 34
30 38 35
30 38 36
30 40 0
30 40 1
30 40 2
30 40 3
30 40 4
30 40 5
30 40 13
30 40 14
30 40 15
30 40 16
30 40 17
30 40 18
30 40 19
30 40 20
30 40 21
30 40 22
30 40 23
30 40 24
30 40 27
30 40 28
30 40 29
30 40 30
30 40 31
30 40 32
30 42 0
30 42 1
30 42 2
30 42 3
30 42 4
30 42 13
30 42 14
30 42 15
30 42 16
30 42 17
30 42 18
30 42 19
30 42 20
30 42 21
30 42 22
30 44 0
30 44 1
30 44 2
30 44 3
30 44 4
30 44 13
30 44 14
30 44 15
30 44 16
30 44 17
30 44 18
30 44 19
30 44 20
30 46 0
30 46 1
30 46 2
30 46 3
30 46 4
30 46 5
30 46 11
30 46 13
30 46 14
30 46 15
30 46 16
30 46 17
30 46 18
30 48 0
30 48 1
30 48 2
30 48 3
30 48 4
30 48 12
30 48 13
30 48 14
30 48 15
30 48 16
30 50 11
30 50 12
32 14 34
32 14 35
32 14 36
32 14 37
32 14 38
32 16 34
32 16 35
32 16 36
32 16 37
32 16 38
32 16 39
32 18 32
32 18 33
32 18 34
32 18 35
32 18 36
32 18 37
32 18 38
32 18 39
32 18 40
32 20 30
32 20 31
32 20 32
32 20 33
32 20 34
32 20 35
32 20 36
32 20 37
32 20 38
32 20 39
32 20 40
32 22 0
32 22 1
32 22 2
32 22 14
32 22 15
32 22 16
32 22 17
32 22 18
32 22 19
32 22 20
32 22 21
32 22 22
32 22 29
32 22 30
32 22 31
32 22 32
32 22 33
32 22 34
32 22 35
32 22 36
32 22 37
32 22 38
32 22 39
32 22 40
32 22 41
32 24 0
32 24 1
32 24 2
32 24 3
32 24 13
32 24 14
32 24 15
32 24 16
32 24 17
32 24 18
32 24 19
32 24 20
32 24 21
32 24 22
32 24 23
32 24 24
32 24 25
32 24 26
32 24 27
32 24 28
32 24 29
32 24 30
32 24 31
32 24 32
32 24 33
32 24 34
32 24 35
32 24 36
32 24 37
32 24 38
32 24 39
32 24 40
32 26 0
32 26 1
32 26 2
32 26 3
32 26 13
32 26 14
32 26 15
32 26 16
32 26 17
32 26 18
32 26 19
32 26 20
32 26 21
32 26 22
32 26 23
32 26 24
32 26 25
32 26 26
32 26 27
32 26 28
32 26 29
32 26 30
32 26 31
32 26 32
32 26 33
32 26 34
32 26 35
32 26 36
32 26 37
32 26 38
32 26 39
32 26 40
32 28 0
32 28 1
32 28 2
32 28 3
32 28 13
32 28 14
32 28 15
32 28 16
32 28 17
32 28 18
32 28 19
32 28 20
32 28 21
32 28 22
32 28 23
32 28 24
32 28 25
32 28 26
32 28 27
32 28 28
32 28 29
32 28 30
32 28 31
32 28 32
32 28 33
32 28 34
32 28 35
32 28 36
32 28 37
32 28 38
32 28 39
32 28 40
32 30 0
32 30 1
32 30 2
32 30 3
32 30 5
32 30 13
32 30 14
32 30 15
32 30 16
32 30 17
32 30 18
32 30 19
32 30 20
32 30 21
32 30 22
32 30 23
32 30 24
32 30 25
32 30 26
32 30 27
32 30 28
32 30 29
32 30 30
32 30 31
32 30 32
32 30 33
32 30 34
32 30 35
32 30 36
32 30 37
32 30 38
32 30 39
32 32 0
32 32 1
32 32 2
32 32 3
32 32 14
32 32 15
32 32 16
32 32 17
32 32 18
32 32 19
32 32 20
32 32 21
32 32 22
32 32 23
32 32 24
32 32 25
32 32 26
32 32 27
32 32 28
32 32 29
32 32 30
32 32 31
32 32 32
32 32 33
32 32 34
32 32 35
32 32 36
32 32 37
32 32 38
32 32 39
32 34 0
32 34 1
32 34 2
32 34 3
32 34 4
32 34 12
32 34 14
32 34 15
32 34 16
32 34 17
32 34 18
32 34 19
32 34 20
32 34 21
32 34 22
32 34 23
32 34 24
32 34 25
32 34 26
32 34 27
32 34 28
32 34 29
32 34 30
32 34 31
32 34 32
32 34 33
32 34 35
32 34 36
32 34 37
32 34 38
32 34 39
32 36 0
32 36 1
32 36 2
32 36 3
32 36 4
32 36 5
32 36 13
32 36 14
32 36 15
32 36 16
32 36 17
32 36 18
32 36 19
32 36 20
32 36 21
32 36 22
32 36 23
32 36 24
32 36 25
32 36 26
32 36 27
32 36 28
32 36 29
32 36 30
32 36 31
32 36 32
32 36 33
32 36 34
32 36 35
32 36 36
32 36 37
32 36 38
32 38 0
32 38 1
32 38 2
32 38 3
32 38 4
32 38 14
32 38 15
32 38 16
32 38 17
32 38 18
32 38 19
32 38 20
32 38 21
32 38 22
32 38 23
32 38 24
32 38 25
32 38 26
32 38 27
32 38 28
32 38 29
32 38 30
32 38 31
32 38 32
32 38 33
32 38 34
32 38 35
32 38 36
32 38 37
32 38 38
32 40 0
32 40 1
32 40 2
32 40 3
32 40 4
32 40 5
32 40 14
32 40 15
32 40 16
32 40 17
32 40 18
32 40 19
32 40 20
32 40 21
32 40 22
32 40 23
32 40 24
32 40 25
32 40 26
32 40 27
32 40 28
32 40 29
32 40 30
32 40 31
32 40 32
32 40 33
32 40 34
32 40 35
32 40 37
32 42 0
32 42 1
32 42 2
32 42 3
32 42 4
32 42 5
32 42 13
32 42 14
32 42 15
32 42 16
32 42 17
32 42 18
32 42 19
32 42 20
32 42 21
32 42 22
32 44 0
32 44 1
32 44 2
32 44 3
32 44 4
32 44 12
32 44 13
32 44 14
32 44 15
32 44 16
32 44 17
32 44 18
32 44 19
32 44 20
32 46 0
32 46 1
32 46 2
32 46 3
32 46 4
32 46 12
32 46 13
32 46 14
32 46 15
32 46 16
32 46 17
32 46 18
32 46 19
32 48 0
32 48 1
32 48 2
32 48 3
32 48 4
32 48 9
32 48 12
32 48 13
32 48 14
32 48 15
32 48 16
32 50 3
32 50 4
32 50 11
32 50 12
32 50 13
32 50 14
34 16 36
34 18 33
34 18 34
34 18 35
34 18 36
34 18 37
34 18 38
34 18 39
34 20 32
34 20 33
34 20 34
34 20 35
34 20 36
34 20 37
34 20 38
34 20 39
34 20 40
34 22 0
34 22 1
34 22 2
34 22 14
34 22 15
34 22 16
34 22 17
34 22 18
34 22 19
34 22 20
34 22 21
34 22 29
34 22 30
34 22 31
34 22 32
34 22 33
34 22 34
34 22 35
34 22 36
34 22 37
34 22 38
34 22 39
34 22 40
34 24 0
34 24 1
34 24 2
34 24 3
34 24 13
34 24 14
34 24 15
34 24 16
34 24 17
34 24 18
34 24 19
34 24 20
34 24 21
34 24 22
34 24 23
34 24 24
34 24 25
34 24 26
34 24 27
34 24 28
34 24 29
34 24 30
34 24 31
34 24 32
34 24 33
34 24 34
34 24 35
34 24 36
34 24 37
34 24 38
34 24 39
34 24 40
34 26 0
34 26 1
34 26 2
34 26 3
34 26 4
34 26 13
34 26 14
34 26 15
34 26 16
34 26 17
34 26 18
34 26 19
34 26 20
34 26 21
34 26 22
34 26 23
34 26 24
34 26 25
34 26 26
34 26 27
34 26 28
34 26 29
34 26 30
34 26 31
34 26 32
34 26 33
34 26 34
34 26 35
34 26 36
34 26 37
34 26 38
34 26 39
34 26 40
34 28 0
34 28 1
34 28 2
34 28 3
34 28 4
34 28 5
34 28 7
34 28 13
34 28 14
34 28 15
34 28 16
34 28 17
34 28 18
34 28 19
34 28 20
34 28 21
34 28 22
34 28 23
34 28 24
34 28 25
34 28 26
34 28 27
34 28 28
34 28 29
34 28 30
34 28 31
34 28 32
34 28 33
34 28 34
34 28 35
34 28 36
34 28 37
34 28 38
34 28 39
34 28 40
34 30 0
34 30 1
34 30 2
34 30 3
34 30 4
34 30 13
34 30 14
34 30 15
34 30 16
34 30 17
34 30 18
34 30 19
34 30 20
34 30 21
34 30 22
34 30 23
34 30 24
34 30 25
34 30 26
34 30 27
34 30 28
34 30 29
34 30 30
34 30 31
34 30 32
34 30 33
34 30 34
34 30 35
34 30 36
34 30 37
34 30 38
34 30 39
34 32 0
34 32 1
34 32 2
34 32 3
34 32 4
34 32 12
34 32 14
34 32 15
34 32 16
34 32 17
34 32 18
34 32 19
34 32 20
34 32 21
34 32 22
34 32 23
34 32 24
34 32 25
34 32 26
34 32 27
34 32 28
34 32 29
34 32 30
34 32 31
34 32 32
34 32 33
34 32 34
34 32 35
34 32 36
34 32 37
34 32 38
34 32 39
34 34 0
34 34 1
34 34 2
34 34 3
34 34 4
34 34 5
34 34 13
34 34 14
34 34 15
34 34 16
34 34 17
34 34 18
34 34 19
34 34 20
34 34 21
34 34 22
34 34 23
34 34 24
34 34 25
34 34 26
34 34 27
34 34 28
34 34 29
34 34 30
34 34 31
34 34 32
34 34 33
34 34 35
34 34 36
34 34 37
34 34 38
34 34 39
34 36 0
34 36 1
34 36 2
34 36 3
34 36 4
34 36 5
34 36 13
34 36 14
34 36 15
34 36 16
34 36 17
34 36 18
34 36 19
34 36 20
34 36 21
34 36 22
34 36 23
34 36 24
34 36 25
34 36 26
34 36 27
34 36 28
34 36 29
34 36 30
34 36 31
34 36 32
34 36 33
34 36 34
34 36 35
34 36 36
34 36 37
34 36 38
34 38 0
34 38 1
34 38 2
34 38 3
34 38 4
34 38 14
34 38 15
34 38 16
34 38 17
34 38 18
34 38 19
34 38 20
34 38 21
34 38 22
34 38 23
34 38 24
34 38 25
34 38 26
34 38 27
34 38 28
34 38 29
34 38 30
34 38 31
34 38 32
34 38 33
34 38 34
34 38 35
34 38 36
34 38 37
34 38 38
34 40 0
34 40 1
34 40 2
34 40 3
34 40 4
34 40 5
34 40 14
34 40 15
34 40 16
34 40 17
34 40 18
34 40 19
34 40 20
34 40 21
34 40 22
34 40 23
34 40 24
34 40 25
34 40 26
34 40 27
34 40 28
34 40 29
34 40 30
34 40 31
34 40 32
34 40 33
34 40 34
34 42 0
34 42 1
34 42 2
34 42 3
34 42 4
34 42 5
34 42 14
34 42 15
34 42 16
34 42 17
34 42 18
34 42 19
34 42 20
34 42 21
34 42 22
34 44 0
34 44 1
34 44 2
34 44 3
34 44 4
34 44 5
34 44 14
34 44 15
34 44 16
34 44 17
34 44 18
34 44 19
34 44 20
34 44 21
34 46 0
34 46 1
34 46 2
34 46 3
34 46 4
34 46 5
34 46 12
34 46 14
34 46 15
34 46 16
34 46 17
34 46 18
34 46 19
34 48 0
34 48 1
34 48 2
34 48 3
34 48 4
34 48 13
34 48 14
34 48 15
34 48 16
34 48 17
34 50 3
34 50 4
34 50 5
34 50 8
34 50 9
34 50 13
34 50 14
34 52 3
34 52 4
34 52 5
34 52 6
34 52 8
34 52 9
34 52 10
36 20 32
36 20 33
36 20 34
36 20 35
36 20 36
36 22 0
36 22 1
36 22 2
36 22 16
36 22 17
36 22 18
36 22 19
36 22 20
36 22 30
36 22 31
36 22 32
36 22 33
36 22 34
36 22 35
36 22 36
36 22 37
36 22 38
36 24 0
36 24 1
36 24 2
36 24 3
36 24 11
36 24 12
36 24 13
36 24 14
36 24 15
36 24 16
36 24 17
36 24 18
36 24 19
36 24 20
36 24 21
36 24 22
36 24 23
36 24 24
36 24 25
36 24 26
36 24 27
36 24 28
36 24 29
36 24 30
36 24 31
36 24 32
36 24 33
36 24 34
36 24 35
36 24 36
36 24 37
36 24 38
36 24 39
36 24 40
36 26 0
36 26 1
36 26 2
36 26 3
36 26 4
36 26 13
36 26 14
36 26 15
36 26 16
36 26 17
36 26 18
36 26 19
36 26 20
36 26 21
36 26 22
36 26 23
36 26 24
36 26 25
36 26 26
36 26 27
36 26 28
36 26 29
36 26 30
36 26 31
36 26 32
36 26 33
36 26 34
36 26 35
36 26 36
36 26 37
36 26 38
36 26 39
36 26 40
36 28 0
36 28 1
36 28 2
36 28 3
36 28 4
36 28 14
36 28 15
36 28 16
36 28 17
36 28 18
36 28 19
36 28 20
36 28 21
36 28 22
36 28 23
36 28 24
36 28 25
36 28 26
36 28 27
36 28 28
36 28 29
36 28 30
36 28 31
36 28 32
36 28 33
36 28 34
36 28 35
36 28 36
36 28 37
36 28 38
36 28 39
36 28 40
36 30 0
36 30 1
36 30 2
36 30 3
36 30 4
36 30 5
36 30 14
36 30 15
36 30 16
36 30 17
36 30 18
36 30 19
36 30 20
36 30 21
36 30 22
36 30 23
36 30 24
36 30 25
36 30 26
36 30 27
36 30 28
36 30 29
36 30 30
36 30 31
36 30 32
36 30 33
36 30 34
36 30 35
36 30 36
36 30 37
36 30 38
36 30 39
36 32 0
36 32 1
36 32 2
36 32 3
36 32 8
36 32 13
36 32 14
36 32 15
36 32 16
36 32 17
36 32 18
36 32 19
36 32 20
36 32 21
36 32 22
36 32 23
36 32 24
36 32 25
36 32 26
36 32 27
36 32 28
36 32 29
36 32 30
36 32 31
36 32 32
36 32 33
36 32 34
36 32 35
36 32 36
36 32 37
36 32 38
36 32 39
36 34 0
36 34 1
36 34 2
36 34 3
36 34 4
36 34 5
36 34 14
36 34 15
36 34 16
36 34 17
36 34 18
36 34 19
36 34 20
36 34 21
36 34 22
36 34 23
36 34 24
36 34 25
36 34 26
36 34 27
36 34 28
36 34 29
36 34 30
36 34 31
36 34 32
36 34 33
36 34 34
36 34 35
36 34 36
36 34 37
36 34 38
36 34 39
36 36 0
36 36 1
36 36 2
36 36 3
36 36 4
36 36 5
36 36 14
36 36 15
36 36 16
36 36 17
36 36 18
36 36 19
36 36 20
36 36 21
36 36 22
36 36 23
36 36 24
36 36 25
36 36 26
36 36 27
36 36 28
36 36 29
36 36 30
36 36 31
36 36 32
36 36 33
36 36 34
36 36 35
36 36 36
36 36 37
36 36 38
36 38 0
36 38 1
36 38 2
36 38 3
36 38 4
36 38 5
36 38 14
36 38 15
36 38 16
36 38 17
36 38 18
36 38 19
36 38 20
36 38 21
36 38 22
36 38 23
36 38 24
36 38 25
36 38 26
36 38 27
36 38 28
36 38 29
36 38 30
36 38 31
36 38 32
36 38 33
36 38 34
36 38 35
36 38 36
36 38 37
36 38 38
36 40 0
36 40 1
36 40 2
36 40 3
36 40 4
36 40 5
36 40 14
36 40 15
36 40 16
36 40 17
36 40 18
36 40 19
36 40 20
36 40 21
36 40 22
36 40 23
36 40 24
36 40 25
36 40 26
36 40 27
36 40 28
36 40 29
36 40 30
36 40 31
36 40 32
36 40 33
36 42 0
36 42 1
36 42 2
36 42 3
36 42 4
36 42 5
36 42 14
36 42 15
36 42 16
36 42 17
36 42 18
36 42 19
36 42 20
36 42 21
36 42 22
36 44 0
36 44 1
36 44 2
36 44 3
36 44 4
36 44 5
36 44 13
36 44 14
36 44 15
36 44 16
36 44 17
36 44 18
36 44 19
36 44 20
36 46 0
36 46 1
36 46 2
36 46 3
36 46 4
36 46 5
36 46 13
36 46 14
36 46 15
36 46 16
36 46 17
36 46 18
36 46 19
36 48 0
36 48 1
36 48 2
36 48 3
36 48 4
36 48 5
36 48 12
36 48 13
36 48 14
36 48 15
36 48 16
36 48 17
36 50 2
36 50 3
36 50 4
36 50 5
36 50 6
36 50 8
36 50 9
36 50 10
36 50 12
36 50 13
36 50 14
36 50 15
36 52 3
36 52 4
36 52 5
36 52 6
36 52 7
36 52 8
36 52 9
36 52 10
36 52 11
36 52 12
36 54 3
36 54 4
36 54 5
36 54 6
36 54 7
38 22 0
38 22 1
38 22 16
38 22 20
38 22 32
38 22 33
38 22 34
38 22 35
38 22 36
38 24 0
38 24 1
38 24 2
38 24 3
38 24 13
38 24 14
38 24 15
38 24 16
38 24 17
38 24 18
38 24 19
38 24 20
38 24 21
38 24 22
38 24 23
38 24 24
38 24 25
38 24 26
38 24 27
38 24 28
38 24 29
38 24 30
38 24 31
38 24 32
38 24 33
38 24 34
38 24 35
38 24 36
38 24 37
38 26 0
38 26 1
38 26 2
38 26 3
38 26 13
38 26 14
38 26 15
38 26 16
38 26 17
38 26 18
38 26 19
38 26 20
38 26 21
38 26 22
38 26 23
38 26 24
38 26 25
38 26 26
38 26 27
38 26 28
38 26 29
38 26 30
38 26 31
38 26 32
38 26 33
38 26 34
38 26 35
38 26 36
38 26 37
38 26 38
38 28 0
38 28 1
38 28 2
38 28 3
38 28 4
38 28 5
38 28 7
38 28 8
38 28 12
38 28 13
38 28 14
38 28 15
38 28 16
38 28 17
38 28 18
38 28 19
38 28 20
38 28 21
38 28 22
38 28 23
38 28 24
38 28 25
38 28 26
38 28 27
38 28 28
38 28 29
38 28 30
38 28 31
38 28 32
38 28 33
38 28 34
38 28 35
38 28 36
38 28 37
38 28 38
38 28 39
38 30 0
38 30 1
38 30 2
38 30 3
38 30 4
38 30 5
38 30 13
38 30 14
38 30 15
38 30 16
38 30 17
38 30 18
38 30 19
38 30 20
38 30 21
38 30 22
38 30 23
38 30 24
38 30 25
38 30 26
38 30 27
38 30 28
38 30 29
38 30 30
38 30 31
38 30 32
38 30 33
38 30 34
38 30 35
38 30 36
38 30 37
38 30 38
38 30 39
38 32 0
38 32 1
38 32 2
38 32 3
38 32 4
38 32 5
38 32 14
38 32 15
38 32 16
38 32 17
38 32 18
38 32 19
38 32 20
38 32 21
38 32 22
38 32 23
38 32 24
38 32 25
38 32 26
38 32 27
38 32 28
38 32 29
38 32 30
38 32 31
38 32 32
38 32 33
38 32 34
38 32 35
38 32 36
38 32 37
38 32 38
38 32 39
38 34 0
38 34 1
38 34 2
38 34 3
38 34 4
38 34 14
38 34 15
38 34 16
38 34 17
38 34 18
38 34 19
38 34 20
38 34 21
38 34 22
38 34 23
38 34 24
38 34 25
38 34 26
38 34 27
38 34 28
38 34 29
38 34 30
38 34 31
38 34 32
38 34 33
38 34 34
38 34 35
38 34 36
38 34 37
38 34 38
38 36 0
38 36 1
38 36 2
38 36 3
38 36 4
38 36 5
38 36 14
38 36 15
38 36 16
38 36 17
38 36 18
38 36 19
38 36 20
38 36 21
38 36 22
38 36 23
38 36 24
38 36 25
38 36 26
38 36 27
38 36 28
38 36 29
38 36 30
38 36 31
38 36 32
38 36 33
38 36 34
38 36 35
38 36 36
38 36 37
38 36 38
38 38 0
38 38 1
38 38 2
38 38 3
38 38 4
38 38 5
38 38 14
38 38 15
38 38 16
38 38 17
38 38 18
38 38 19
38 38 20
38 38 21
38 38 22
38 38 23
38 38 24
38 38 25
38 38 26
38 38 27
38 38 28
38 38 29
38 38 30
38 38 31
38 38 32
38 38 33
38 38 34
38 38 35
38 38 36
38 38 37
38 38 38
38 40 0
38 40 1
38 40 2
38 40 3
38 40 4
38 40 5
38 40 14
38 40 15
38 40 16
38 40 17
38 40 18
38 40 19
38 40 20
38 40 21
38 40 22
38 40 23
38 40 24
38 40 25
38 40 26
38 40 27
38 40 28
38 40 29
38 40 30
38 40 31
38 40 32
38 40 33
38 42 0
38 42 1
38 42 2
38 42 3
38 42 4
38 42 5
38 42 14
38 42 15
38 42 16
38 42 17
38 42 18
38 42 19
38 42 20
38 42 21
38 42 22
38 44 0
38 44 1
38 44 2
38 44 3
38 44 4
38 44 5
38 44 14
38 44 15
38 44 16
38 44 17
38 44 18
38 44 19
38 44 20
38 46 0
38 46 1
38 46 2
38 46 3
38 46 4
38 46 5
38 46 14
38 46 15
38 46 16
38 46 17
38 46 18
38 46 19
38 48 0
38 48 1
38 48 2
38 48 3
38 48 4
38 48 5
38 48 6
38 48 12
38 48 13
38 48 14
38 48 15
38 48 16
38 48 17
38 50 2
38 50 3
38 50 4
38 50 5
38 50 6
38 50 7
38 50 9
38 50 10
38 50 11
38 50 12
38 50 13
38 50 14
38 50 15
38 50 16
38 52 2
38 52 3
38 52 4
38 52 5
38 52 6
38 52 7
38 52 8
38 52 9
38 52 10
38 52 11
38 52 12
38 52 13
38 54 4
38 54 5
38 54 6
38 54 7
40 22 0
40 24 0
40 24 1
40 24 2
40 24 3
40 24 15
40 24 16
40 24 17
40 24 18
40 24 19
40 24 20
40 24 24
40 26 0
40 26 1
40 26 2
40 26 3
40 26 13
40 26 14
40 26 15
40 26 16
40 26 17
40 26 18
40 26 19
40 26 20
40 26 21
40 26 22
40 26 23
40 26 24
40 26 25
40 26 26
40 26 27
40 26 28
40 26 29
40 26 30
40 26 31
40 26 32
40 26 33
40 26 34
40 28 0
40 28 1
40 28 2
40 28 3
40 28 4
40 28 5
40 28 8
40 28 14
40 28 15
40 28 16
40 28 17
40 28 18
40 28 19
40 28 20
40 28 21
40 28 22
40 28 23
40 28 24
40 28 25
40 28 26
40 28 27
40 28 28
40 28 29
40 28 30
40 28 31
40 28 32
40 28 33
40 28 34
40 28 35
40 30 0
40 30 1
40 30 2
40 30 3
40 30 4
40 30 5
40 30 14
40 30 15
40 30 16
40 30 17
40 30 18
40 30 19
40 30 20
40 30 21
40 30 22
40 30 23
40 30 24
40 30 25
40 30 26
40 30 27
40 30 28
40 30 29
40 30 30
40 30 31
40 30 32
40 30 33
40 30 34
40 30 35
40 30 36
40 30 37
40 32 0
40 32 1
40 32 2
40 32 3
40 32 4
40 32 5
40 32 14
40 32 15
40 32 16
40 32 17
40 32 18
40 32 19
40 32 20
40 32 21
40 32 22
40 32 23
40 32 24
40 32 25
40 32 26
40 32 27
40 32 28
40 32 29
40 32 30
40 32 31
40 32 32
40 32 33
40 32 34
40 32 35
40 32 36
40 32 37
40 34 0
40 34 1
40 34 2
40 34 3
40 34 4
40 34 5
40 34 14
40 34 15
40 34 16
40 34 17
40 34 18
40 34 19
40 34 20
40 34 21
40 34 22
40 34 23
40 34 24
40 34 25
40 34 26
40 34 27
40 34 28
40 34 29
40 34 30
40 34 31
40 34 32
40 34 33
40 34 34
40 34 35
40 34 36
40 36 0
40 36 1
40 36 2
40 36 3
40 36 4
40 36 5
40 36 14
40 36 15
40 36 16
40 36 17
40 36 18
40 36 19
40 36 20
40 36 21
40 36 22
40 36 23
40 36 24
40 36 25
40 36 26
40 36 27
40 36 28
40 36 29
40 36 30
40 36 31
40 36 32
40 36 33
40 36 34
40 36 35
40 38 0
40 38 1
40 38 2
40 38 3
40 38 4
40 38 14
40 38 15
40 38 16
40 38 17
40 38 18
40 38 19
40 38 20
40 38 21
40 38 22
40 38 23
40 38 24
40 38 25
40 38 26
40 38 27
40 38 28
40 38 29
40 38 30
40 38 31
40 38 32
40 38 33
40 40 0
40 40 1
40 40 2
40 40 3
40 40 4
40 40 5
40 40 6
40 40 15
40 40 16
40 40 17
40 40 18
40 40 19
40 40 20
40 40 21
40 40 22
40 40 23
40 42 0
40 42 1
40 42 2
40 42 3
40 42 4
40 42 5
40 42 6
40 42 14
40 42 15
40 42 16
40 42 17
40 42 18
40 42 19
40 42 20
40 42 21
40 42 22
40 44 0
40 44 1
40 44 2
40 44 3
40 44 4
40 44 5
40 44 6
40 44 13
40 44 14
40 44 15
40 44 16
40 44 17
40 44 18
40 44 19
40 44 20
40 46 0
40 46 1
40 46 2
40 46 3
40 46 4
40 46 5
40 46 6
40 46 12
40 46 14
40 46 15
40 46 16
40 46 17
40 46 18
40 46 19
40 48 0
40 48 1
40 48 2
40 48 3
40 48 4
40 48 5
40 48 6
40 48 9
40 48 11
40 48 13
40 48 14
40 48 15
40 48 16
40 48 17
40 50 2
40 50 3
40 50 4
40 50 5
40 50 6
40 50 7
40 50 8
40 50 9
40 50 10
40 50 11
40 50 12
40 50 13
40 50 14
40 52 2
40 52 3
40 52 4
40 52 5
40 52 6
40 52 7
40 52 8
40 52 9
40 52 10
40 52 11
40 54 4
40 54 5
40 54 6
40 54 7
40 54 8
42 24 0
42 24 1
42 24 2
42 26 0
42 26 1
42 26 2
42 26 3
42 26 13
42 26 14
42 26 15
42 26 16
42 26 17
42 26 18
42 26 19
42 26 20
42 26 21
42 26 22
42 26 23
42 28 0
42 28 1
42 28 2
42 28 3
42 28 4
42 28 14
42 28 15
42 28 16
42 28 17
42 28 18
42 28 19
42 28 20
42 28 21
42 28 22
42 28 23
42 30 0
42 30 1
42 30 2
42 30 3
42 30 4
42 30 5
42 30 6
42 30 7
42 30 14
42 30 15
42 30 16
42 30 17
42 30 18
42 30 19
42 30 20
42 30 21
42 30 22
42 30 23
42 32 0
42 32 1
42 32 2
42 32 3
42 32 4
42 32 5
42 32 6
42 32 14
42 32 15
42 32 16
42 32 17
42 32 18
42 32 19
42 32 20
42 32 21
42 32 22
42 32 23
42 32 30
42 32 31
42 32 33
42 34 0
42 34 1
42 34 2
42 34 3
42 34 4
42 34 5
42 34 14
42 34 15
42 34 16
42 34 17
42 34 18
42 34 19
42 34 20
42 34 21
42 34 22
42 34 23
42 34 27
42 34 28
42 34 29
42 34 30
42 34 31
42 34 32
42 36 0
42 36 1
42 36 2
42 36 3
42 36 4
42 36 5
42 36 6
42 36 14
42 36 15
42 36 16
42 36 17
42 36 18
42 36 19
42 36 20
42 36 21
42 36 22
42 36 23
42 36 29
42 36 30
42 36 32
42 38 0
42 38 1
42 38 2
42 38 3
42 38 4
42 38 5
42 38 6
42 38 15
42 38 16
42 38 17
42 38 18
42 38 19
42 38 20
42 38 21
42 38 22
42 38 23
42 40 0
42 40 1
42 40 2
42 40 3
42 40 4
42 40 5
42 40 6
42 40 15
42 40 16
42 40 17
42 40 18
42 40 19
42 40 20
42 40 21
42 40 22
42 40 23
42 42 0
42 42 1
42 42 2
42 42 3
42 42 4
42 42 5
42 42 6
42 42 15
42 42 16
42 42 17
42 42 18
42 42 19
42 42 20
42 42 21
42 42 22
42 44 0
42 44 1
42 44 2
42 44 3
42 44 4
42 44 5
42 44 6
42 44 14
42 44 15
42 44 16
42 44 17
42 44 18
42 44 19
42 44 20
42 46 0
42 46 1
42 46 2
42 46 3
42 46 4
42 46 5
42 46 6
42 46 11
42 46 13
42 46 14
42 46 15
42 46 16
42 46 17
42 48 0
42 48 1
42 48 2
42 48 3
42 48 4
42 48 5
42 48 6
42 48 7
42 48 8
42 48 9
42 48 10
42 48 11
42 48 12
42 48 13
42 48 14
42 48 15
42 48 16
42 50 3
42 50 4
42 50 5
42 50 6
42 50 7
42 50 8
42 50 9
42 50 10
42 50 11
42 50 12
42 50 13
42 50 14
42 52 3
42 52 4
42 52 5
42 52 6
42 52 7
42 52 8
42 52 9
42 54 5
42 54 6
44 24 0
44 24 1
44 26 0
44 26 1
44 26 2
44 26 21
44 26 23
44 28 0
44 28 1
44 28 2
44 28 3
44 28 14
44 28 15
44 28 16
44 28 17
44 28 18
44 28 19
44 28 20
44 28 21
44 28 22
44 28 23
44 30 0
44 30 1
44 30 2
44 30 3
44 30 7
44 30 14
44 30 15
44 30 16
44 30 17
44 30 18
44 30 19
44 30 20
44 30 21
44 30 22
44 30 23
44 32 0
44 32 1
44 32 2
44 32 3
44 32 4
44 32 5
44 32 14
44 32 15
44 32 16
44 32 17
44 32 18
44 32 19
44 32 20
44 32 21
44 32 22
44 32 23
44 34 0
44 34 1
44 34 2
44 34 3
44 34 4
44 34 5
44 34 8
44 34 14
44 34 15
44 34 16
44 34 17
44 34 18
44 34 19
44 34 20
44 34 21
44 34 22
44 34 23
44 36 0
44 36 1
44 36 2
44 36 3
44 36 4
44 36 5
44 36 6
44 36 14
44 36 15
44 36 16
44 36 17
44 36 18
44 36 19
44 36 20
44 36 21
44 36 22
44 36 23
44 38 0
44 38 1
44 38 2
44 38 3
44 38 4
44 38 5
44 38 6
44 38 15
44 38 16
44 38 17
44 38 18
44 38 19
44 38 20
44 38 21
44 38 22
44 38 23
44 40 0
44 40 1
44 40 2
44 40 3
44 40 4
44 40 5
44 40 6
44 40 15
44 40 16
44 40 17
44 40 18
44 40 19
44 40 20
44 40 21
44 40 22
44 40 23
44 42 0
44 42 1
44 42 2
44 42 3
44 42 4
44 42 5
44 42 6
44 42 15
44 42 16
44 42 17
44 42 18
44 42 19
44 42 20
44 42 21
44 42 22
44 44 0
44 44 1
44 44 2
44 44 3
44 44 4
44 44 5
44 44 6
44 44 15
44 44 16
44 44 17
44 44 18
44 44 19
44 44 20
44 46 0
44 46 1
44 46 2
44 46 3
44 46 4
44 46 5
44 46 6
44 46 7
44 46 12
44 46 13
44 46 14
44 46 15
44 46 16
44 48 3
44 48 4
44 48 5
44 48 6
44 48 7
44 48 8
44 48 9
44 48 10
44 48 11
44 48 13
44 48 14
44 50 3
44 50 4
44 50 5
44 50 6
44 50 7
44 50 8
44 50 9
44 52 4
44 52 5
44 52 6
44 52 7
46 26 0
46 28 0
46 28 1
46 28 2
46 28 21
46 28 23
46 30 0
46 30 1
46 30 2
46 30 3
46 30 15
46 30 17
46 30 18
46 30 19
46 30 20
46 30 21
46 30 22
46 30 23
46 32 0
46 32 1
46 32 2
46 32 3
46 32 4
46 32 14
46 32 15
46 32 16
46 32 17
46 32 18
46 32 19
46 32 20
46 32 21
46 32 22
46 32 23
46 34 0
46 34 1
46 34 2
46 34 3
46 34 4
46 34 14
46 34 15
46 34 16
46 34 17
46 34 18
46 34 19
46 34 20
46 34 21
46 34 22
46 34 23
46 36 0
46 36 1
46 36 2
46 36 3
46 36 14
46 36 15
46 36 16
46 36 17
46 36 18
46 36 19
46 36 20
46 36 21
46 36 22
46 36 23
46 36 24
46 38 0
46 38 1
46 38 2
46 38 3
46 38 4
46 38 8
46 38 15
46 38 16
46 38 17
46 38 18
46 38 19
46 38 20
46 38 21
46 38 22
46 38 23
46 38 24
46 40 0
46 40 1
46 40 2
46 40 3
46 40 8
46 40 15
46 40 16
46 40 17
46 40 18
46 40 19
46 40 20
46 40 21
46 40 22
46 42 0
46 42 1
46 42 2
46 42 5
46 42 15
46 42 16
46 42 17
46 42 18
46 42 19
46 42 20
46 42 21
46 44 0
46 44 1
46 44 2
46 44 15
46 44 16
46 44 17
46 44 18
46 44 19
46 46 0
46 46 6
46 46 7
46 48 5
46 48 6
48 28 22
48 28 23
48 28 24
48 30 0
48 30 1
48 30 21
48 30 22
48 30 23
48 30 24
48 30 25
48 32 0
48 32 1
48 32 20
48 32 21
48 32 22
48 32 23
48 32 24
48 32 25
48 34 0
48 34 1
48 34 2
48 34 14
48 34 18
48 34 19
48 34 20
48 34 21
48 34 22
48 34 23
48 34 24
48 34 25
48 36 0
48 36 1
48 36 2
48 36 14
48 36 15
48 36 16
48 36 17
48 36 18
48 36 19
48 36 20
48 36 21
48 36 22
48 36 23
48 36 24
48 38 0
48 38 1
48 38 2
48 38 14
48 38 15
48 38 16
48 38 17
48 38 18
48 38 19
48 38 20
48 38 21
48 38 22
48 38 23
48 38 24
48 40 0
48 40 15
48 40 16
48 40 17
48 40 18
48 40 19
48 40 20
48 40 21
48 40 22
48 42 0
48 42 1
48 42 16
48 42 17
48 42 18
48 42 19
50 28 24
50 28 25
50 30 23
50 30 24
50 30 25
50 30 26
50 32 20
50 32 21
50 32 22
50 32 23
50 32 24
50 32 25
50 32 26
50 34 19
50 34 20
50 34 21
50 34 22
50 34 23
50 34 24
50 34 25
50 34 26
50 36 18
50 36 19
50 36 20
50 36 21
50 36 22
50 36 23
50 36 24
50 36 25
50 38 18
50 38 19
50 38 20
50 38 21
50 40 17
50 40 18
50 40 19
50 40 20
50 40 21
50 40 22
50 42 18
50 42 19
50 42 20
52 28 24
52 28 25
52 28 26
52 30 24
52 30 25
52 30 26
52 32 22
52 32 23
52 32 24
52 32 25
52 32 26
52 34 19
52 34 20
52 34 21
52 34 22
52 34 23
52 34 24
52 34 25
52 34 26
52 36 19
52 36 20
52 36 21
52 36 22
52 36 23
52 36 24
52 36 25
52 38 19
52 38 20
52 38 21
52 38 22
52 40 19
52 40 20
52 40 21
54 28 25
54 30 24
54 30 25
54 30 26
54 30 27
54 32 22
54 32 23
54 32 24
54 32 25
54 32 26
54 34 21
54 34 22
54 34 23
54 34 24
54 34 25
54 36 20
54 36 21
54 36 22
54 36 23
54 38 20
54 38 21
56 30 25
56 30 26
56 30 27
56 32 24
56 32 25
56 32 26
56 34 22
56 34 23
56 34 24
56 36 22
56 36 23
